<?xml version="1.0" encoding="utf-8"?>
<!-- Generator: Adobe Illustrator 26.3.0, SVG Export Plug-In . SVG Version: 6.00 Build 0)  -->
<svg version="1.1" xmlns="http://www.w3.org/2000/svg" xmlns:xlink="http://www.w3.org/1999/xlink" x="0px" y="0px"
	 viewBox="0 0 383.09 361.66" style="enable-background:new 0 0 383.09 361.66;" xml:space="preserve">
<style type="text/css">
	.st0{fill:#155E75;}
	.st1{fill:#1E9BCC;}
	.st2{fill:#2DB1E7;}
	.st3{fill:#E0F2F9;}
	.st4{fill:#9BD6EE;stroke:#000000;stroke-miterlimit:10;}
	.st5{fill:none;}
	.st6{fill:#C5E7FA;}
	.st7{fill:#2DB1E7;stroke:#000000;stroke-width:0.5;stroke-miterlimit:10;}
	.st8{fill:#FFFFFF;}
	.st9{fill:#2DB1E7;stroke:#000000;stroke-width:0.7278;stroke-miterlimit:10;}
</style>
<g id="Capa_2">
</g>
<g id="Capa_1">
	<g>
		<g>
			<g>
				<path class="st1" d="M281.65,315.55c0,0,12.03-11.85,14.3-24.05c0,0-5.32,9.92-18.33,13.45c0,0,5.4-6.86,5.89-10.56
					c0.49-3.71-16.19,6.8-16.19,6.8l-0.87,18.17C266.45,319.35,275.59,320.64,281.65,315.55z"/>
				<path class="st1" d="M278.24,303.7c1.6-1.37,3.18-3,4.7-4.78c0.09-0.21,0.18-0.42,0.27-0.63c0.2-0.44,0.42-0.86,0.68-1.27
					c0.44-0.67,0.95-1.23,1.52-1.73c0.29-0.73,0.73-1.4,1.28-1.98c4.74-8.44,9.19-18,7.96-26.77c-0.03-0.2-0.04-0.39-0.05-0.58
					c-0.08-0.73-0.12-1.3-0.1-1.67c-2.54,2.6-5.62,4.36-8.72,6.26c-1.97,1.21-4.02,2.29-6.12,3.26
					c-11.42,5.25-24.32,7.24-36.79,7.97c-12.9,0.75-26.16,0.06-38.39-4.43c-19.43-7.13-33.24-21.74-39.27-32.19
					c-18.69-32.4-18.86-70.09,7.01-98.39c10.36-11.34,23.47-16.33,42.5-16.19l29.11,0.21l0.61-84.42l-29.11-0.21
					c-43.19-0.32-78.66,14.37-105.42,43.65c-54.02,59.1-56.19,152.62-4.94,212.91c21.96,25.84,55.73,42.45,92.63,45.58
					c14.19,1.2,35.29-2.15,48.03-7.65c19.16-8.25,29.72-17.78,36.01-25.12C276.73,314.13,273.32,307.93,278.24,303.7z"/>
				<path class="st5" d="M277.61,304.95c1.3-1.56,1.1-1.4,1.6-1.99c0.62-0.74,1.23-1.49,1.82-2.25c3.67-4.72,6.83-9.83,9.38-15.24
					c1.27-2.69,2.4-5.48,3.12-8.38c1.04-4.2,1.43-8.52,0.98-12.81c-2.54,2.6-5.62,4.36-8.72,6.26c-1.97,1.21-4.02,2.29-6.12,3.26
					c-11.42,5.25-24.32,7.24-36.79,7.97c-12.9,0.75-26.16,0.06-38.39-4.43c-19.43-7.13-33.24-21.74-39.27-32.19
					c-18.69-32.4-18.86-70.09,7.01-98.39c10.36-11.34,23.47-16.33,42.5-16.19l29.11,0.21l0.61-84.42l-29.11-0.21
					c-43.19-0.32-78.66,14.37-105.42,43.65c-54.02,59.1-56.19,152.62-4.94,212.91c21.96,25.84,55.73,42.45,92.63,45.58
					c14.19,1.2,35.29-2.15,48.03-7.65c7.83-3.37,15.23-7.71,22.02-12.86c7.34-5.57,13.95-12.08,19.68-19.29
					c0.25-0.32,0.5-0.63,0.75-0.95c0.03-0.04,0.06-0.08,0.09-0.12c3.28-4.23,6.99-11.87,7.77-15.95c-1.86,2.86-2.1,4.07-7.79,8.32
					c-1.51,1.13-3.29,2.55-5.04,3.28c-0.91,0.38-1.84,0.73-2.78,1.05C279.48,304.45,279.6,304.45,277.61,304.95z"/>
			</g>
			<path class="st2" d="M292.4,267.11c-12.64,24.85-31.09,48.78-57.96,58.94c-31.56,11.92-68.74,3.29-96.61-14
				c-0.32-0.2-0.64-0.4-0.95-0.6c-1.29-0.82-2.55-1.67-3.79-2.54c-0.14-0.1-0.28-0.2-0.42-0.3c-6.13-4.4-11.71-9.55-16.6-15.3
				c-46.59-54.81-44.58-139.88,4.59-193.67c23.86-26.11,55.68-39.2,94.57-38.91l14.55,0.11l-0.4,55.31l-14.55-0.11
				c-23.19-0.17-40.14,6.48-53.35,20.93c-30.72,33.6-32.16,86.55-3.27,120.52c11.75,13.82,35.6,29.38,60.18,31.47
				c2.38,0.2,6.23,0.69,12.64,1.07C267.41,292.17,285.84,271.6,292.4,267.11z"/>
			<path class="st6" d="M197.97,321.64c-24.43-1.12-48.86-11.73-66.31-28.28c-2.32-2.2-4.53-4.53-6.61-6.97
				c-41.93-49.33-40.07-125.94,4.25-174.42c20.96-22.93,49.13-34.43,83.73-34.18l-0.19,26.2c-27.23-0.2-48.23,8.19-64.2,25.66
				c-35.58,38.92-37.17,100.31-3.62,139.77c16.7,19.64,48.27,31.13,77.73,31.68c25.1,0.48,47.69-11.39,69.29-33.52
				c-8.39,8.59-15.62,18.27-24.41,26.47c-11.13,10.38-25.18,19.18-39.72,23.8C218.25,320.93,208.11,322.11,197.97,321.64z"/>
		</g>
		<path class="st9" d="M253.58,154.01c-5.05-0.03-9.89-1.94-13.64-5.38l-16.91-15.53l-22.9,1.63c-0.54,0.04-1.08,0.06-1.62,0.05
			c-6.93-0.05-13.31-3.57-17.05-9.44c-3.74-5.86-4.24-13.13-1.35-19.46L189.65,85l-8.63-21.28c-2.57-6.33-1.81-13.48,2.02-19.12
			c3.84-5.66,10.19-9.01,17-8.97c0.74,0,1.49,0.05,2.24,0.14l22.81,2.62l17.57-14.78c3.72-3.13,8.42-4.83,13.24-4.8
			c9.63,0.06,18,6.95,19.91,16.37l4.56,22.5l19.49,12.14c6.18,3.85,9.77,10.49,9.61,17.77c-0.16,7.28-4.04,13.76-10.37,17.34
			l-20,11.28l-5.52,22.29C271.28,147.69,263.06,154.07,253.58,154.01z"/>
		<path class="st6" d="M247.89,139.97l-20.64-18.96L199.28,123c-6.56,0.47-11.22-6.26-8.49-12.24l11.65-25.49L191.91,59.3
			c-2.47-6.09,2.48-12.61,9.01-11.86l27.84,3.2l21.45-18.05c5.03-4.23,12.76-1.54,14.06,4.91l5.56,27.47l23.79,14.82
			c5.58,3.48,5.4,11.66-0.32,14.89l-24.41,13.78l-6.74,27.2C260.57,142.06,252.73,144.42,247.89,139.97z"/>
		<g>
			<path class="st2" d="M253.71,159.72c-6.54,0-12.8-2.45-17.64-6.89l-15.1-13.86l-20.45,1.46c-0.63,0.05-1.27,0.07-1.89,0.07
				c-8.91,0-17.12-4.49-21.95-12.01c-4.83-7.51-5.49-16.85-1.78-24.97l8.52-18.65l-7.71-19c-3.27-8.07-2.33-17.19,2.53-24.4
				c4.87-7.23,12.96-11.54,21.64-11.54c1,0,2.02,0.06,3.02,0.17l20.37,2.34l15.68-13.2c4.71-3.96,10.67-6.14,16.79-6.14
				c12.4,0,23.18,8.81,25.64,20.95l4.07,20.09l17.4,10.84c7.91,4.93,12.51,13.43,12.31,22.74c-0.2,9.31-5.17,17.61-13.28,22.19
				l-17.85,10.08l-4.93,19.9C276.21,151.56,265.76,159.72,253.71,159.72z"/>
			<path class="st6" d="M247.89,139.97l-20.64-18.96L199.29,123c-6.56,0.47-11.22-6.26-8.49-12.24l11.65-25.49L191.91,59.3
				c-2.47-6.09,2.48-12.61,9.01-11.86l27.84,3.2l21.45-18.05c5.03-4.23,12.76-1.54,14.06,4.91l5.56,27.47l23.79,14.82
				c5.58,3.48,5.4,11.66-0.32,14.89l-24.41,13.78l-6.74,27.2C260.57,142.05,252.73,144.41,247.89,139.97z"/>
		</g>
	</g>
</g>
</svg>
