<svg xmlns="http://www.w3.org/2000/svg" viewBox="0 0 1198.19 402.11">
  <defs>
    <style>
      .cls-1 {
        fill: #155e75;
      }

      .cls-2 {
        fill: #c5e7fa;
      }

      .cls-3 {
        fill: #1e9bcc;
      }

      .cls-4 {
        fill: none;
      }

      .cls-5, .cls-6 {
        fill: #2db1e7;
      }

      .cls-6 {
        stroke: #1d1d1b;
        stroke-miterlimit: 10;
        stroke-width: 0.5px;
      }
    </style>
  </defs>
  <g id="Capa_1" data-name="Capa 1">
    <g>
      <g>
        <path class="cls-1" d="M141.62,327.07c-2.07,0-4.07-.08-5.94-.24-30.57-2.6-58.7-16.55-77.19-38.29C39,265.61,28.27,235.87,28.27,204.79a131.42,131.42,0,0,1,34.09-89,108.91,108.91,0,0,1,44.29-29.6c.27-.44.55-.87.84-1.3a37.87,37.87,0,0,1,31.45-16.76,37.36,37.36,0,0,1,4.36.25l5.43.62,4.18-3.51A37.94,37.94,0,0,1,214.54,87l1.08,5.35,4.64,2.89a38,38,0,0,1-1.42,65.26l-4.75,2.68-1.32,5.3a37.93,37.93,0,0,1-62.5,18.82l-4-3.69-5.45.39c-.89.06-1.81.1-2.72.1a37.64,37.64,0,0,1-5-.33,31.39,31.39,0,0,0-7.12,20.1A44.89,44.89,0,0,0,132.44,226,34.09,34.09,0,0,0,149,239.37a39.5,39.5,0,0,0,13.59,2c1.47,0,3.07-.05,4.73-.15,7.76-.45,13.68-1.66,18.08-3.68a20.19,20.19,0,0,0,2.08-1.11l.75-.46c.57-.34,1.31-.79,1.68-1.05l29.44-30.14,4.49,42.28c.07.69.13,1.38.17,2.08.82,7.88-1.14,15.21-3.87,21.54l4.46.84c-.09.5-.19,1-.31,1.5l6.57,2.19-17,18.19c-1.65,2.06-3.09,3.63-4,4.57a72.66,72.66,0,0,1-7.69,7.6l-1.31,1.29-.18-.06A94,94,0,0,1,178.28,320c-9.94,4.28-24.33,7.05-36.66,7.05Z"/>
        <path class="cls-1" d="M200.35,309.09a64.15,64.15,0,0,1-35.69-11c-3.34-1.91-6.75-5-12.35-11l-.51-.54-.46-.57c-9.87-12.22-14.88-26.65-14.88-42.88a67.55,67.55,0,0,1,17.21-45.72l.52-.6.57-.55c5.78-5.62,9.91-8.87,13.86-10.85a60.64,60.64,0,0,1,29.91-8.24h3.07c13.6,0,26.18,4.89,37.39,14.53l.62.53.57.58A67.33,67.33,0,0,1,253,210.18a75.6,75.6,0,0,1,7.78,33.7c0,17.14-5.19,32.2-15.43,44.76l-.48.59-.52.55c-5.72,6-9.78,9.4-13.84,11.41a54.31,54.31,0,0,1-28.24,7.9Z"/>
        <path class="cls-1" d="M320,309.09c-11.24,0-21-5.58-27.72-15.73a36.89,36.89,0,0,1-10.73,10.43l-1.23.79-1.32.61A33.57,33.57,0,0,1,265,308.43H264c-10.61,0-20-5-26.64-14.14-5.29-6.84-6.1-15.78-6.12-23.77-1.74-58.67-1.74-60.08-1.74-60.85,0-5.5,1.64-13.8,9.42-22.07l.43-.45.45-.43a32.32,32.32,0,0,1,22.37-9.14h.67a31.29,31.29,0,0,1,11.88,2.34,45.16,45.16,0,0,1,15-2.58h3.73c7.67,0,15.46,2.16,23.23,6.43a37.14,37.14,0,0,1,9.21-4.94,42.92,42.92,0,0,1,16.83-3.56H345c10.47,0,20.49,3.87,29.77,11.51l.75.62.69.68a65.63,65.63,0,0,1,11.2,14.29l.1.17a109.14,109.14,0,0,1,6.21,13.91l.08.21a144.47,144.47,0,0,1,5,19.84l0,.29.05.29a222.71,222.71,0,0,1,3.34,36.61v2.23c0,12-6.54,22.6-17.94,29l-1.49.84-1.61.57a34.52,34.52,0,0,1-11.54,2.13h-.83a31.57,31.57,0,0,1-23.71-10.62,38.94,38.94,0,0,1-7.88,6.62l-1,.64-1.06.52a33.06,33.06,0,0,1-14.47,3.5Z"/>
        <path class="cls-1" d="M436,309.09c-17.13,0-32.34-6-44-17.34l-.09-.09a67.84,67.84,0,0,1-11.06-13.5,79.81,79.81,0,0,1-12-33.85l-.05-.47c-.23-2.41-.34-4.4-.34-6.09v-3.31a61.15,61.15,0,0,1,13.16-37.94l.29-.37.3-.35c8.06-9.55,23-20.93,48.16-20.93h2.07c30,0,46.71,14.44,55.41,26.55l.25.34.23.36a62.93,62.93,0,0,1,10.23,35.15,34.8,34.8,0,0,1-6.76,21.31,33,33,0,0,1,1.55,9.75v.82c0,11.65-5.87,27.45-33.84,36.57l-.32.11-.32.09A82,82,0,0,1,436,309.09Z"/>
        <path class="cls-1" d="M528.38,309.09c-17.45,0-31.93-7.33-41.85-21.19l-.29-.39-.26-.41a62.49,62.49,0,0,1-9.82-34.45s0-5.91.06-8.45a36.27,36.27,0,0,1-7.15-6.73l-.48-.58-.43-.62a32.76,32.76,0,0,1-6.08-18.73v-.83c0-10.28,4.78-19.48,13.27-25.92.23-6.46,2.6-15.52,12-23.88l1.12-1,1.26-.82A33.09,33.09,0,0,1,508,159.37h.67c12.12,0,22.72,6.59,29.09,18.09l.39.71.34.74a31.11,31.11,0,0,1,2.06,6.47,28.19,28.19,0,0,1,8.09,1.83l.16.07a34.11,34.11,0,0,1,17.39,15.39l.2.37.19.39A32.76,32.76,0,0,1,570,217.79v.66A31.42,31.42,0,0,1,561.58,240a34.65,34.65,0,0,1,16.83,15.41l.87,1.53.59,1.66A34.48,34.48,0,0,1,582,270.13v.74c0,11.16-5.56,21-15.65,27.79l-1.1.74-1.18.58C551.84,306,539.83,309.09,528.38,309.09Z"/>
      </g>
      <g>
        <g>
          <path class="cls-2" d="M199.05,197h3.07q13.08,0,24.35,9.69a48.37,48.37,0,0,1,9.11,12.17,55.57,55.57,0,0,1,5.71,24.85q0,18.72-10.93,32.13-6.3,6.63-8.7,7.45a34.55,34.55,0,0,1-18.88,5.63h-1.9a44.58,44.58,0,0,1-25.43-8.2q-1.74-.74-8-7.45A46.75,46.75,0,0,1,157,242.94a47.88,47.88,0,0,1,12.25-32.54q6.38-6.21,9.19-7.46A41.09,41.09,0,0,1,199.05,197ZM183,243q0,9.61,6.54,15.66a19.35,19.35,0,0,0,12.26,4.22q8.94,0,12.34-11.1a30,30,0,0,0,1.07-7.62V243q0-10.68-6.62-17.39a11.83,11.83,0,0,0-7.87-2.65q-11.6,0-16.31,11.76A30.2,30.2,0,0,0,183,243Z"/>
          <path class="cls-2" d="M343.32,195.08h2.23q8.61,0,17.06,6.95a46.78,46.78,0,0,1,7.87,9.86,90.08,90.08,0,0,1,5,11.34,129.57,129.57,0,0,1,4.22,17,202.45,202.45,0,0,1,3.07,33.29v2.24q0,7.2-7.7,11.51a15.12,15.12,0,0,1-4.89,1h-.83q-7.2,0-11.43-7.62a15.28,15.28,0,0,1-1.16-5.22v-.08a157.63,157.63,0,0,0-5.46-42.23q-2.49-7.78-6.05-11.6a2.9,2.9,0,0,0-.83-.33h-.33q-2.14,0-5.46,8.7-1.67,4.21-3.32,14.32a180,180,0,0,0-1.57,19.38Q334,271,334,276.4q0,6.54-7,11a13.05,13.05,0,0,1-5.71,1.49h-.75q-6.8,0-11.26-7.12-1.41-2.23-1.41-9.52,0-26.25-7.7-42.4-3.56-6.71-8.2-6.71h-.08c-2.49,0-4.58,1.79-6.3,5.38-1.15,1.77-2.51,5.36-4,10.77a139.73,139.73,0,0,0-3.48,31.38,6.33,6.33,0,0,1-.17,1.66,6.38,6.38,0,0,1,.17,1.66v1.65q0,6.71-6.88,11.18a13.71,13.71,0,0,1-5.71,1.41h-.91q-6.37,0-10.68-6.21-2.07-2.31-2.07-12-1.74-58.63-1.74-60.53,0-4.14,4-8.37a12.51,12.51,0,0,1,8.7-3.73h.66q5.72,0,10.27,5.39h.25q8.11-5.64,16.39-5.63H294q8.2,0,17.64,6.46a61.33,61.33,0,0,1,7.12,7.12q2.07-3,3.65-5,6.45-7,11.26-8.45A23.33,23.33,0,0,1,343.32,195.08Z"/>
          <path class="cls-2" d="M430.85,194.66h2.07q26.08,0,39.17,18.22a43.08,43.08,0,0,1,7,24.18q0,10.94-10.19,14.16,0,.5-48.61,1.83,1.9,4.05,7.45,7.78a14.74,14.74,0,0,0,7.7,2h1.49q10.85,0,17.31-5.47a13.48,13.48,0,0,1,6.3-1.82h.82q7.21,0,11.51,7.7a14.9,14.9,0,0,1,1,4.89V269q0,11-20,17.55a61.87,61.87,0,0,1-17.31,2.4q-18.06,0-30.06-11.67a48.58,48.58,0,0,1-8-9.69,59.76,59.76,0,0,1-9.2-25.76c-.16-1.76-.25-3.17-.25-4.22v-3.31a41.38,41.38,0,0,1,9-25.76Q409.66,194.66,430.85,194.66Zm-13.91,32.46H417q3.89,0,32.05-1v-.25q-5.15-5.22-17.23-5.21-11.76,0-14.66,5.71C417.07,226.38,417,226.63,416.94,227.12Z"/>
          <path class="cls-2" d="M508.53,179.18h.66q7.29,0,11.59,7.78,1.58,3.48,1.58,14.49a24.9,24.9,0,0,1,.25,3.07l.91.08q15.74,0,18.21,1a14.11,14.11,0,0,1,7.38,6.38,13,13,0,0,1,1.4,5.63v.66q0,6.72-7,11.18a13.28,13.28,0,0,1-5.22,1.49l-15.57-.33v8.53c0,3.21,0,7.15-.08,11.85q0,7.36,2.56,10.93a6.52,6.52,0,0,0,3.81,1q5.88,0,16.48-5a15.35,15.35,0,0,1,3.4-.5H550q7.2,0,11.51,7.62a15.12,15.12,0,0,1,1,4.89v.74q0,6.63-6.79,11.18-14.25,7-26.83,7-16.39,0-25.59-12.83a42.55,42.55,0,0,1-6.63-23.6q.09-10.6.09-17.48v-5h-1.25q-6,0-10.43-5.38a12.56,12.56,0,0,1-2.48-7.29v-.83q0-7.2,7.7-11.51a14.36,14.36,0,0,1,4.8-1h1.41l-.66-12.34q0-5.3,5.3-10A13.47,13.47,0,0,1,508.53,179.18Z"/>
        </g>
        <g>
          <g>
            <g>
              <path class="cls-3" d="M195.63,284.2s8.27-8.14,9.82-16.52a21,21,0,0,1-12.59,9.24s3.71-4.71,4-7.26-11.13,4.67-11.13,4.67l-.59,12.48S191.47,287.7,195.63,284.2Z"/>
              <path class="cls-3" d="M193.29,276.06a30.58,30.58,0,0,0,3.23-3.29c.06-.14.12-.29.19-.43a5.14,5.14,0,0,1,.46-.87,5.78,5.78,0,0,1,1.05-1.19,4.13,4.13,0,0,1,.88-1.36c3.25-5.8,6.31-12.37,5.47-18.39,0-.14,0-.27,0-.4a9.75,9.75,0,0,1-.07-1.15,29.47,29.47,0,0,1-6,4.3,39.3,39.3,0,0,1-4.2,2.24c-7.85,3.61-16.71,5-25.28,5.48-8.86.51-18,0-26.37-3-13.35-4.9-22.84-14.94-27-22.12-12.84-22.26-13-48.15,4.82-67.59,7.12-7.79,16.12-11.22,29.2-11.13l20,.15.42-58-20-.14c-29.67-.22-54,9.87-72.43,30C40.53,169.72,39,234,74.25,275.39c15.09,17.76,38.29,29.17,63.64,31.32,9.75.83,24.25-1.48,33-5.25,13.17-5.67,20.42-12.22,24.74-17.26C192.26,283.22,189.91,279,193.29,276.06Z"/>
              <path class="cls-4" d="M192.86,276.92c.89-1.08.76-1,1.1-1.37s.84-1,1.25-1.54a56,56,0,0,0,6.44-10.47,31.15,31.15,0,0,0,2.14-5.76,25.1,25.1,0,0,0,.67-8.8,29.47,29.47,0,0,1-6,4.3,39.3,39.3,0,0,1-4.2,2.24c-7.85,3.61-16.71,5-25.28,5.48-8.86.51-18,0-26.37-3-13.35-4.9-22.84-14.94-27-22.12-12.84-22.26-13-48.15,4.82-67.59,7.12-7.79,16.12-11.22,29.2-11.13l20,.15.42-58-20-.14c-29.67-.22-54,9.87-72.43,30C40.53,169.72,39,234,74.25,275.39c15.09,17.76,38.29,29.17,63.64,31.32,9.75.83,24.25-1.48,33-5.25A72.52,72.52,0,0,0,186,292.62a76,76,0,0,0,13.52-13.25l.51-.65.06-.08c2.25-2.91,4.81-8.16,5.34-11-1.28,2-1.44,2.79-5.34,5.71a18,18,0,0,1-3.46,2.26c-.63.26-1.27.5-1.91.72A14.8,14.8,0,0,1,192.86,276.92Z"/>
            </g>
            <path class="cls-5" d="M203,250.92c-8.68,17.07-21.36,33.51-39.82,40.49-21.68,8.19-47.23,2.25-66.37-9.62l-.66-.41c-.88-.56-1.75-1.15-2.6-1.75l-.29-.2a64.28,64.28,0,0,1-11.41-10.51c-32-37.66-30.62-96.11,3.16-133.06,16.39-17.94,38.26-26.93,65-26.74l10,.08-.27,38-10-.08c-15.94-.11-27.58,4.46-36.65,14.38C92,184.59,91,221,110.83,244.3c8.07,9.5,24.45,20.19,41.34,21.62,1.64.14,4.28.48,8.69.74C185.85,268.14,198.51,254,203,250.92Z"/>
            <path class="cls-2" d="M138.14,288.38A72.46,72.46,0,0,1,92.58,269,64.23,64.23,0,0,1,88,264.17C59.23,230.28,60.51,177.64,91,144.34c14.4-15.76,33.76-23.66,57.52-23.48l-.13,18c-18.71-.14-33.14,5.63-44.1,17.63-24.45,26.73-25.54,68.91-2.49,96,11.47,13.5,33.16,21.39,53.4,21.77,17.24.33,32.76-7.82,47.61-23C197,257.16,192,263.81,186,269.44a74,74,0,0,1-27.28,16.35A58.86,58.86,0,0,1,138.14,288.38Z"/>
          </g>
          <path class="cls-6" d="M176.34,173.21a14,14,0,0,1-9.37-3.69l-11.62-10.67L139.62,160c-.37,0-.75,0-1.11,0a14,14,0,0,1-12.64-19.85l6.55-14.35-5.93-14.62a14,14,0,0,1,13.07-19.29,13.08,13.08,0,0,1,1.53.09l15.67,1.8,12.07-10.15a14,14,0,0,1,22.78,8L194.74,107l13.39,8.34a14,14,0,0,1-.52,24.11l-13.74,7.76-3.8,15.31A14,14,0,0,1,176.34,173.21Z"/>
          <path class="cls-2" d="M172.44,163.57l-14.19-13L139,151.91a6,6,0,0,1-5.83-8.4l8-17.52L134,108.15a6,6,0,0,1,6.19-8.15l19.13,2.2L174,89.8a6,6,0,0,1,9.66,3.38l3.82,18.87,16.35,10.18a6,6,0,0,1-.22,10.23l-16.77,9.47-4.64,18.69A6,6,0,0,1,172.44,163.57Z"/>
          <g>
            <path class="cls-5" d="M176.44,177.14a17.85,17.85,0,0,1-12.12-4.74L154,162.88l-14,1c-.44,0-.87.05-1.3.05a17.95,17.95,0,0,1-16.3-25.41l5.85-12.81-5.29-13A18,18,0,0,1,139.46,88a18.13,18.13,0,0,1,2.08.12l14,1.61,10.78-9.07A17.94,17.94,0,0,1,195.46,90.8l2.79,13.8,11.95,7.45a17.94,17.94,0,0,1-.67,30.86l-12.26,6.92-3.39,13.67A17.93,17.93,0,0,1,176.44,177.14Z"/>
            <path class="cls-2" d="M172.44,163.57l-14.19-13-19.2,1.37a6,6,0,0,1-5.84-8.4l8-17.52L134,108.15a6,6,0,0,1,6.19-8.15l19.13,2.2L174,89.8a6,6,0,0,1,9.67,3.38l3.81,18.87,16.35,10.18a6,6,0,0,1-.22,10.23l-16.77,9.47-4.64,18.69A6,6,0,0,1,172.44,163.57Z"/>
          </g>
        </g>
      </g>
    </g>
    <g>
      <g>
        <path class="cls-1" d="M755.13,307.1a56.26,56.26,0,0,1-34.41-11.76l-.45-.34-.43-.37c-9.6-8.1-21-23.11-21-48.59,0-22,6.72-39.69,20-52.64l.3-.29.31-.28c11.49-10.35,25.8-15.59,42.5-15.59a97,97,0,0,1,34.48,6.81l1.37.52,1.28.72c9.45,5.29,15.43,13.8,16.91,23.8a38.41,38.41,0,0,1,3.37,15.55c.06.61.1,1.25.12,1.9,0,1.06.05,2.49.05,4.39,0,3.17,0,6.54-.08,10,.55,25.87.62,31.31.62,33.14,0,9.5-4.35,18.35-12.26,24.92l-.72.6-.79.54a32.73,32.73,0,0,1-18.47,5.8,31.64,31.64,0,0,1-11.21-2,62.6,62.6,0,0,1-19.31,3.18Z"/>
        <path class="cls-1" d="M879.16,307.1c-10.39,0-19.65-5-25.93-13.82A35.67,35.67,0,0,1,842.06,303l-1.53.87-1.66.58a33.44,33.44,0,0,1-11.22,2.07h-.78c-11.31,0-21.41-6-27.73-16.47-2.91-4.81-4.17-10.6-4.2-19.31-1.46-46.83-1.63-55.34-1.63-57.66,0-10,4.89-19.12,13.77-25.69l.54-.4.56-.36a31.56,31.56,0,0,1,17-5.09h.62a30.68,30.68,0,0,1,11.11,2.08A43.72,43.72,0,0,1,851,181.26h3.41c8.2,0,16.63,2.6,25,7.71a51.22,51.22,0,0,1,11.12,9.51l.16.17a67,67,0,0,1,12,19.72l.06.15c6,14.93,9,33.36,9,54.79,0,12.91-5.92,23.6-16.27,29.44a30.3,30.3,0,0,1-15.66,4.35Z"/>
        <path class="cls-1" d="M932.93,307.1c-6.48,0-22.29-2.16-30.83-21.94-30.09-57.7-30.69-59.24-31.33-60.85l-.47-1.21-.32-1.26a36.26,36.26,0,0,1-1.21-8.8c0-10.52,4.94-19.9,13.9-26.41l.66-.47.68-.42a32.21,32.21,0,0,1,17-4.86c11,0,20.65,5.38,27.13,15.15l.59.89,1.56,3c3.27-7.08,7.18-12,12.13-15.21a32.7,32.7,0,0,1,18.24-5.63c11.44,0,21.29,5.74,27.71,16.16l.7,1.13.54,1.21a33.54,33.54,0,0,1,3.06,13.73c0,5.36-1.6,11-5.16,18.36-14.59,33.9-23,53.39-25.8,59.56l-.72,1.6-1,1.45C953.51,301.84,943.9,307.1,932.93,307.1Z"/>
        <path class="cls-1" d="M1010.32,307.1a56.21,56.21,0,0,1-34.41-11.76l-.45-.34-.43-.37c-9.6-8.1-21-23.11-21-48.59,0-22,6.72-39.69,20-52.64l.29-.29.31-.28c11.49-10.35,25.79-15.59,42.51-15.59a97,97,0,0,1,34.48,6.81l1.36.52,1.28.72c9.45,5.29,15.43,13.8,16.91,23.8a38.41,38.41,0,0,1,3.37,15.55c.06.61.1,1.25.12,1.9,0,1.06.05,2.49.05,4.39,0,3.19,0,6.56-.08,10,.56,26.14.62,31.44.62,33.14,0,9.5-4.35,18.35-12.25,24.92l-.73.6-.78.54a32.79,32.79,0,0,1-18.48,5.8,31.64,31.64,0,0,1-11.21-2,62.6,62.6,0,0,1-19.31,3.18Z"/>
        <path class="cls-1" d="M1098.4,307.1a126.17,126.17,0,0,1-32.11-4.7l-1.55-.42-1.45-.65a33.54,33.54,0,0,1-14.55-12.54l-.36-.56-.33-.59a32.25,32.25,0,0,1-4.19-14.77v-1.19a31.52,31.52,0,0,1,7.94-20.9,39.88,39.88,0,0,1-7.46-21.81l0-.45V226.6c0-10.29,3.57-20,10.61-28.86l.28-.35.29-.34c9.41-10.82,22.7-16.92,38.45-17.62l1.31-.07c1.16-.07,2.32-.11,3.46-.11,10.25,0,21.59,2,34.66,6.11l1.44.46,1.36.66c11.43,5.59,18.35,15.73,19,27.82l0,.53V216a30.74,30.74,0,0,1-6.48,19,39.93,39.93,0,0,1,7.69,21.78l0,.47v1.86c0,8.68-2.77,17.31-8.22,25.66l-.36.56-.41.53c-6.78,9-19.82,20-43.43,21l-1.4.07C1101.22,307.07,1099.82,307.1,1098.4,307.1Z"/>
        <path class="cls-1" d="M729.42,193.4a33.94,33.94,0,0,1-22.77-9l-5.27-4.84-7.13.51c-.83,0-1.65.08-2.46.08h-.19A34,34,0,0,1,660.88,132l3-6.51-2.69-6.63a34,34,0,0,1,31.51-46.81h.22a33,33,0,0,1,3.69.22l7.1.82,5.48-4.61a34.08,34.08,0,0,1,21.88-8h.22A34.17,34.17,0,0,1,764.41,87.8l1.42,7,6.07,3.78a34,34,0,0,1-1.26,58.51l-6.23,3.52-1.72,6.94a34,34,0,0,1-33.05,25.84Z"/>
        <path class="cls-1" d="M729.64,185.33a25.86,25.86,0,0,1-17.53-6.84l-7.83-7.2-10.61.76c-.63,0-1.25.07-1.86.07a26,26,0,0,1-23.59-36.73l4.42-9.68-4-9.85a26,26,0,0,1,24-35.71,27.06,27.06,0,0,1,3,.17l10.57,1.22,8.14-6.85A25.94,25.94,0,0,1,756.5,89.4l2.11,10.42,9,5.63a25.94,25.94,0,0,1-1,44.62l-9.26,5.23-2.56,10.32A25.93,25.93,0,0,1,729.64,185.33Z"/>
        <path class="cls-1" d="M695.34,327.07c-2.07,0-4.06-.08-5.94-.24l-.53-.05c-30.35-2.71-58.29-16.65-76.65-38.25C592.73,265.61,582,235.87,582,204.79a131.37,131.37,0,0,1,34.09-89,108.81,108.81,0,0,1,44.28-29.6c.27-.44.55-.87.84-1.3a37.9,37.9,0,0,1,31.46-16.76,37.36,37.36,0,0,1,4.36.25l5.42.62,4.18-3.51A37.94,37.94,0,0,1,768.26,87l1.08,5.35L774,95.26a38,38,0,0,1-1.41,65.26l-4.76,2.68-1.31,5.3A37.94,37.94,0,0,1,704,187.32l-4-3.69-5.45.39c-.89.06-1.8.1-2.72.1a37.38,37.38,0,0,1-5-.33,31.4,31.4,0,0,0-7.13,20.1c0,7.16,2.24,14.82,6.47,22.15a34,34,0,0,0,16.54,13.33,39.54,39.54,0,0,0,13.59,2c1.48,0,3.07-.05,4.73-.15,7.77-.45,13.68-1.66,18.09-3.68a22.12,22.12,0,0,0,2.07-1.1L742,236c.56-.34,1.3-.79,1.67-1l29.43-30.15,4.5,42.27c.07.69.13,1.39.17,2.1.83,7.88-1.14,15.2-3.86,21.53l4.46.84c-.09.5-.2,1-.31,1.5l6.57,2.18-17,18.19c-1.65,2.07-3.1,3.64-4,4.58a74.52,74.52,0,0,1-7.69,7.59l-1.31,1.3-.18-.06A94.38,94.38,0,0,1,732,320c-9.94,4.28-24.33,7.05-36.66,7.05Z"/>
      </g>
      <g>
        <path class="cls-2" d="M760.64,198.2A76.68,76.68,0,0,1,788,203.7q7.05,3.95,7,11.31l-.08,1.16q3.09,3.26,3.1,10.69a31.8,31.8,0,0,1,.15,5q0,5-.07,10.08.61,29.21.62,33.07,0,5.35-5,9.53a12.56,12.56,0,0,1-7.2,2.33,12.35,12.35,0,0,1-9.22-4.26l-.16-.08q-11.07,5.51-21.15,5.5H753.9a36.45,36.45,0,0,1-22.39-7.75Q717.58,268.53,717.57,247q0-24.7,13.94-38.35Q743.14,198.2,760.64,198.2Zm-18.75,48.57q0,12.31,6.51,15.65a14.26,14.26,0,0,0,6.43,1.31H755a21.26,21.26,0,0,0,13.55-4.57,15.06,15.06,0,0,0,2.56-4.64,49.43,49.43,0,0,0,2.63-14.88q0-3.18-.15-15.18a50.32,50.32,0,0,0-13.09-1.94q-12,0-15.81,8.75A41,41,0,0,0,741.89,246.77Z"/>
        <path class="cls-2" d="M849.73,202.22h3.41q6.81,0,14.79,4.88a33.07,33.07,0,0,1,6.74,6A46.77,46.77,0,0,1,883,226.94q7.59,18.9,7.6,47.33,0,8.76-6.36,12.16a10.12,10.12,0,0,1-5.57,1.63h-.7q-6.73,0-10.77-7.2a13.46,13.46,0,0,1-1-4.42c0-1,0-2,.08-2.79q0-19.83-5-35.56-4.19-11.53-9.92-11.54h-.08c-2.17,0-3.9,1.27-5.19,3.79q-1.78,2.32-3.87,9-4,14.49-4,33.78v2.63q0,6.74-7.13,10.77a14,14,0,0,1-4.57.93h-.77q-6.51,0-10.62-6.82-1.31-2.16-1.31-9.29-1.63-52.21-1.63-57.33,0-5.43,5.66-9.61a11.31,11.31,0,0,1,6.19-1.93h.62q5.36,0,9.61,5h.23A26.24,26.24,0,0,1,849.73,202.22Z"/>
        <path class="cls-2" d="M959.43,200.05q6.57,0,10.69,6.67a13.77,13.77,0,0,1,1.31,5.57q0,3.26-3.33,10Q946.34,272.87,942.23,282q-4.11,6-10.54,6-8.45,0-12.7-10.46Q889,220.12,888.15,218a17.43,17.43,0,0,1-.62-3.95q0-6.12,5.66-10.23a12.49,12.49,0,0,1,6.59-1.93q6.35,0,10.45,6.19,20.14,38.9,20.53,39.36.39-.46,15.34-35.48,2.94-7.51,6.12-9.53A12.57,12.57,0,0,1,959.43,200.05Z"/>
        <path class="cls-2" d="M1015.82,198.2a76.68,76.68,0,0,1,27.35,5.5q7,3.95,7,11.31l-.08,1.16q3.1,3.26,3.1,10.69a30.79,30.79,0,0,1,.16,5q0,5-.08,10.08.62,29.21.62,33.07,0,5.35-5,9.53a12.56,12.56,0,0,1-7.2,2.33,12.37,12.37,0,0,1-9.22-4.26l-.16-.08q-11.07,5.51-21.15,5.5h-2.09a36.47,36.47,0,0,1-22.39-7.75Q972.75,268.53,972.75,247q0-24.7,13.94-38.35Q998.32,198.2,1015.82,198.2Zm-18.74,48.57q0,12.31,6.5,15.65a14.26,14.26,0,0,0,6.43,1.31h.16a21.26,21.26,0,0,0,13.55-4.57,15.06,15.06,0,0,0,2.56-4.64,49.15,49.15,0,0,0,2.64-14.88q0-3.18-.16-15.18a50.32,50.32,0,0,0-13.09-1.94q-12,0-15.81,8.75A41,41,0,0,0,997.08,246.77Z"/>
        <path class="cls-2" d="M1093.6,200.36l1.55-.07c.78,0,1.55-.08,2.32-.08q12.16,0,28.67,5.19,7.44,3.65,7.82,10.92v.62c0,4.14-2.06,7.59-6.19,10.38a15.18,15.18,0,0,1-5.58,1.55H1122q-2.33,0-11-2.55a63.21,63.21,0,0,0-13.86-1.79c-.62,0-1.22,0-1.79.08-3.92.21-6.43,1-7.51,2.25q3.72,2.47,22,7.67,24.56,7.74,25.33,24.17v1.39q0,7.14-5,14.72-9.21,12.24-28.43,13.09l-1.47.08c-1,0-2.09.08-3.17.08a105.73,105.73,0,0,1-27-4,13.4,13.4,0,0,1-5.89-5.11,12.5,12.5,0,0,1-1.71-5.66v-.62q0-5.65,5.19-9.84a12.87,12.87,0,0,1,6.51-2.16h.16a71.14,71.14,0,0,1,9.29,1.62,71.49,71.49,0,0,0,13.79,1.47c.93,0,1.84,0,2.71-.07q7.37-.32,9.84-2.64v-.15q-3-2-19.44-6.74-26.81-7.9-27.58-25.1v-1.47q0-8.52,6.27-16.43Q1078.11,201.07,1093.6,200.36Z"/>
      </g>
      <g>
        <g>
          <g>
            <path class="cls-3" d="M747.6,285.35s8.27-8.15,9.82-16.52a21.08,21.08,0,0,1-12.59,9.24s3.71-4.72,4-7.26-11.13,4.67-11.13,4.67L737.16,288S743.44,288.85,747.6,285.35Z"/>
            <path class="cls-3" d="M745.26,277.21a31.55,31.55,0,0,0,3.23-3.29l.18-.43a6.72,6.72,0,0,1,.47-.88,5.68,5.68,0,0,1,1.05-1.18,4.42,4.42,0,0,1,.87-1.37c3.26-5.79,6.32-12.36,5.48-18.39,0-.13,0-.26,0-.4a7.76,7.76,0,0,1-.07-1.14,29.47,29.47,0,0,1-6,4.3,39.3,39.3,0,0,1-4.2,2.24c-7.85,3.61-16.71,5-25.28,5.48-8.86.51-18,0-26.37-3-13.35-4.9-22.84-14.93-27-22.11-12.84-22.26-13-48.16,4.81-67.59,7.12-7.79,16.13-11.22,29.2-11.13l20,.15.43-58-20-.15c-29.67-.21-54,9.88-72.43,30-37.12,40.6-38.61,104.86-3.4,146.28,15.09,17.75,38.29,29.17,63.64,31.32,9.75.83,24.25-1.48,33-5.25,13.16-5.67,20.42-12.22,24.74-17.26C744.22,284.37,741.88,280.11,745.26,277.21Z"/>
            <path class="cls-4" d="M744.83,278.07c.89-1.08.76-1,1.09-1.37s.85-1,1.25-1.55a56,56,0,0,0,6.45-10.46,31.15,31.15,0,0,0,2.14-5.76,25.36,25.36,0,0,0,.67-8.8,29.47,29.47,0,0,1-6,4.3,39.3,39.3,0,0,1-4.2,2.24c-7.85,3.61-16.71,5-25.28,5.48-8.86.51-18,0-26.37-3-13.35-4.9-22.84-14.93-27-22.11-12.84-22.26-13-48.16,4.81-67.59,7.12-7.79,16.13-11.22,29.2-11.13l20,.15.43-58-20-.15c-29.67-.21-54,9.88-72.43,30-37.12,40.6-38.61,104.86-3.4,146.28,15.09,17.75,38.29,29.17,63.64,31.32,9.75.83,24.25-1.48,33-5.25A72.52,72.52,0,0,0,738,293.77a76,76,0,0,0,13.52-13.25l.51-.65.06-.08c2.25-2.91,4.81-8.16,5.34-11-1.28,2-1.44,2.79-5.35,5.71a17.45,17.45,0,0,1-3.46,2.26c-.62.26-1.26.5-1.9.72A16.83,16.83,0,0,1,744.83,278.07Z"/>
          </g>
          <path class="cls-5" d="M755,252.06c-8.69,17.08-21.36,33.52-39.82,40.5-21.69,8.19-47.23,2.25-66.38-9.62l-.65-.41c-.88-.56-1.75-1.15-2.61-1.75l-.28-.21a63.54,63.54,0,0,1-11.41-10.51c-32-37.65-30.62-96.1,3.16-133,16.39-17.94,38.25-26.93,65-26.74l10,.08-.27,38-10-.07c-15.94-.11-27.58,4.45-36.66,14.38-21.1,23.09-22.09,59.46-2.25,82.8,8.08,9.5,24.46,20.19,41.35,21.62,1.63.14,4.28.48,8.69.74C737.82,269.29,750.48,255.15,755,252.06Z"/>
          <path class="cls-2" d="M690.11,289.53a72.52,72.52,0,0,1-45.56-19.42,62.23,62.23,0,0,1-4.54-4.79c-28.81-33.89-27.53-86.53,2.92-119.83,14.4-15.76,33.76-23.66,57.52-23.48l-.13,18c-18.71-.13-33.14,5.63-44.11,17.63-24.44,26.74-25.53,68.92-2.48,96,11.47,13.5,33.16,21.39,53.4,21.77,17.24.33,32.76-7.82,47.6-23C749,258.31,744,265,738,270.59a74.13,74.13,0,0,1-27.29,16.35A58.77,58.77,0,0,1,690.11,289.53Z"/>
        </g>
        <path class="cls-6" d="M728.31,174.36a13.93,13.93,0,0,1-9.37-3.7L707.32,160l-15.73,1.13-1.11,0a14,14,0,0,1-12.65-19.85L684.39,127l-5.93-14.62A14,14,0,0,1,691.52,93a13.25,13.25,0,0,1,1.54.09l15.67,1.8L720.8,84.77a14,14,0,0,1,22.78,8l3.13,15.47,13.39,8.34a14,14,0,0,1-.53,24.11l-13.74,7.76L742,163.71A14,14,0,0,1,728.31,174.36Z"/>
        <path class="cls-2" d="M724.4,164.72l-14.18-13L691,153.06a6,6,0,0,1-5.83-8.4l8-17.52-7.24-17.84a6,6,0,0,1,6.2-8.15l19.13,2.2L726,91a6,6,0,0,1,9.66,3.37l3.82,18.88,16.35,10.18a6,6,0,0,1-.23,10.23l-16.77,9.46-4.63,18.7A6,6,0,0,1,724.4,164.72Z"/>
        <g>
          <path class="cls-5" d="M728.41,178.29a17.85,17.85,0,0,1-12.12-4.74L705.92,164l-14,1c-.44,0-.87.05-1.3.05a17.95,17.95,0,0,1-16.3-25.41l5.85-12.81-5.29-13a18,18,0,0,1,16.6-24.7,18.13,18.13,0,0,1,2.08.12l14,1.61,10.78-9.07A17.94,17.94,0,0,1,747.43,92l2.79,13.8,11.95,7.44a17.95,17.95,0,0,1-.67,30.87L749.24,151l-3.39,13.67A17.93,17.93,0,0,1,728.41,178.29Z"/>
          <path class="cls-2" d="M724.41,164.72l-14.19-13L691,153.06a6,6,0,0,1-5.83-8.41l8-17.51L686,109.3a6,6,0,0,1,6.19-8.15l19.13,2.2L726,91a6,6,0,0,1,9.66,3.37l3.82,18.88,16.35,10.18a6,6,0,0,1-.22,10.23l-16.77,9.46-4.64,18.7A6,6,0,0,1,724.41,164.72Z"/>
        </g>
      </g>
    </g>
  </g>
</svg>
